<?xml version="1.0" encoding="utf-8"?>
<svg viewBox="0 0 24 24" xmlns="http://www.w3.org/2000/svg">
  <path d="M 14.346 9.254 C 16.66 10.516 17.453 13.314 16.117 15.502 C 15.228 16.959 13.617 17.777 11.957 17.79 L 11.957 15.502 C 12.783 15.49 13.579 15.082 14.021 14.358 C 14.691 13.264 14.294 11.865 13.135 11.233 C 12.764 11.03 12.358 10.931 11.958 10.926 L 11.958 8.64 C 12.77 8.645 13.592 8.841 14.346 9.254 Z M 13.111 4.709 L 15.102 2.297 C 15.289 2.082 15.616 2.024 15.879 2.168 L 20.07 4.455 C 20.333 4.598 20.443 4.895 20.34 5.155 L 19.125 7.992 C 19.633 8.6 19.994 9.245 20.301 9.929 L 23.516 10.362 C 23.8 10.4 24.03 10.643 24.024 10.929 L 24.026 15.499 C 24.028 15.793 23.8 16.024 23.511 16.065 L 20.316 16.474 L 19.783 17.503 L 19.106 18.454 L 20.331 21.274 C 20.438 21.532 20.337 21.832 20.069 21.977 L 15.88 24.261 C 15.622 24.409 15.284 24.344 15.108 24.131 L 13.104 21.716 C 12.721 21.759 12.396 22.253 12.013 22.258 L 11.957 19.507 C 12.68 19.501 13.396 19.383 14.073 19.167 L 15.991 21.587 L 17.562 20.728 L 16.279 17.981 C 17.407 17.051 18.174 15.793 18.461 14.405 L 21.611 14.076 L 21.611 12.36 L 18.457 12.012 C 18.185 10.662 17.444 9.436 16.353 8.526 L 17.552 5.72 L 15.979 4.863 L 14.013 7.235 C 13.339 7.026 12.645 6.924 11.957 6.92 L 11.957 4.635 C 12.335 4.632 12.719 4.655 13.111 4.709 Z" style="fill: rgb(185, 48, 135);"/>
  <path d="M 11.091 6.923 C 10.561 5.563 9.061 4.584 7.521 4.584 C 5.521 4.584 4.021 6.084 4.021 8.084 C 4.021 10.974 7.191 15.187 11.941 19.497 L 12.018 19.567 L 12.018 22.267 L 10.601 20.977 C 5.451 16.307 2.021 11.854 2.021 8.084 C 2.021 4.994 4.441 2.584 7.521 2.584 C 9.244 2.584 10.897 3.378 11.988 4.626 L 11.988 6.923 L 11.091 6.923 Z" style="fill: rgb(185, 48, 135);"/>
</svg>